{
    "asset" : {
        "generator" : "Khronos glTF Blender I/O v1.8.19",
        "version" : "2.0"
    },
    "scene" : 0,
    "scenes" : [
        {
            "name" : "Scene",
            "nodes" : [
                0
            ]
        }
    ],
    "nodes" : [
        {
            "mesh" : 0,
            "name" : "\u5766\u514b01"
        }
    ],
    "materials" : [
        {
            "doubleSided" : true,
            "name" : "Material #211",
            "pbrMetallicRoughness" : {
                "baseColorTexture" : {
                    "index" : 0
                },
                "metallicFactor" : 0.22834646701812744,
                "roughnessFactor" : 0.7047244310379028
            }
        },
        {
            "doubleSided" : true,
            "name" : "Material #2112",
            "pbrMetallicRoughness" : {
                "baseColorTexture" : {
                    "index" : 1
                },
                "metallicFactor" : 0,
                "roughnessFactor" : 0.751968502998352
            }
        },
        {
            "doubleSided" : true,
            "name" : "Material #27",
            "pbrMetallicRoughness" : {
                "baseColorTexture" : {
                    "index" : 2
                },
                "metallicFactor" : 0,
                "roughnessFactor" : 0.7755905389785767
            }
        },
        {
            "doubleSided" : true,
            "name" : "Material #198",
            "pbrMetallicRoughness" : {
                "baseColorTexture" : {
                    "index" : 3
                },
                "metallicFactor" : 0,
                "roughnessFactor" : 0.7440944910049438
            }
        }
    ],
    "meshes" : [
        {
            "name" : "Obj3d66-1270365-1-248",
            "primitives" : [
                {
                    "attributes" : {
                        "POSITION" : 0,
                        "NORMAL" : 1,
                        "TEXCOORD_0" : 2,
                        "COLOR_0" : 3
                    },
                    "indices" : 4,
                    "material" : 0
                },
                {
                    "attributes" : {
                        "POSITION" : 5,
                        "NORMAL" : 6,
                        "TEXCOORD_0" : 7,
                        "COLOR_0" : 8
                    },
                    "indices" : 9,
                    "material" : 1
                },
                {
                    "attributes" : {
                        "POSITION" : 10,
                        "NORMAL" : 11,
                        "TEXCOORD_0" : 12,
                        "COLOR_0" : 13
                    },
                    "indices" : 14,
                    "material" : 2
                },
                {
                    "attributes" : {
                        "POSITION" : 15,
                        "NORMAL" : 16,
                        "TEXCOORD_0" : 17,
                        "COLOR_0" : 18
                    },
                    "indices" : 19,
                    "material" : 3
                }
            ]
        }
    ],
    "textures" : [
        {
            "sampler" : 0,
            "source" : 0
        },
        {
            "sampler" : 0,
            "source" : 0
        },
        {
            "sampler" : 0,
            "source" : 1
        },
        {
            "sampler" : 0,
            "source" : 2
        }
    ],
    "images" : [
        {
            "bufferView" : 5,
            "mimeType" : "image/jpeg",
            "name" : "Image_0"
        },
        {
            "bufferView" : 16,
            "mimeType" : "image/jpeg",
            "name" : "Image_1"
        },
        {
            "bufferView" : 22,
            "mimeType" : "image/jpeg",
            "name" : "Image_2"
        }
    ],
    "accessors" : [
        {
            "bufferView" : 0,
            "componentType" : 5126,
            "count" : 6969,
            "max" : [
                1.2708985805511475,
                2.3052022457122803,
                3.2012252807617188
            ],
            "min" : [
                -1.2708985805511475,
                0.17424897849559784,
                -3.1660561561584473
            ],
            "type" : "VEC3"
        },
        {
            "bufferView" : 1,
            "componentType" : 5126,
            "count" : 6969,
            "type" : "VEC3"
        },
        {
            "bufferView" : 2,
            "componentType" : 5126,
            "count" : 6969,
            "type" : "VEC2"
        },
        {
            "bufferView" : 3,
            "componentType" : 5123,
            "count" : 6969,
            "normalized" : true,
            "type" : "VEC4"
        },
        {
            "bufferView" : 4,
            "componentType" : 5123,
            "count" : 21906,
            "type" : "SCALAR"
        },
        {
            "bufferView" : 6,
            "componentType" : 5126,
            "count" : 592,
            "max" : [
                0.4316259026527405,
                2.011057138442993,
                0.555518627166748
            ],
            "min" : [
                -0.4460134506225586,
                1.262905478477478,
                -0.199027419090271
            ],
            "type" : "VEC3"
        },
        {
            "bufferView" : 7,
            "componentType" : 5126,
            "count" : 592,
            "type" : "VEC3"
        },
        {
            "bufferView" : 8,
            "componentType" : 5126,
            "count" : 592,
            "type" : "VEC2"
        },
        {
            "bufferView" : 9,
            "componentType" : 5123,
            "count" : 592,
            "normalized" : true,
            "type" : "VEC4"
        },
        {
            "bufferView" : 10,
            "componentType" : 5123,
            "count" : 3204,
            "type" : "SCALAR"
        },
        {
            "bufferView" : 11,
            "componentType" : 5126,
            "count" : 3271,
            "max" : [
                1.264504075050354,
                0.9224005937576294,
                1.2461200952529907
            ],
            "min" : [
                -1.264504075050354,
                0,
                -3.1053085327148438
            ],
            "type" : "VEC3"
        },
        {
            "bufferView" : 12,
            "componentType" : 5126,
            "count" : 3271,
            "type" : "VEC3"
        },
        {
            "bufferView" : 13,
            "componentType" : 5126,
            "count" : 3271,
            "type" : "VEC2"
        },
        {
            "bufferView" : 14,
            "componentType" : 5123,
            "count" : 3271,
            "normalized" : true,
            "type" : "VEC4"
        },
        {
            "bufferView" : 15,
            "componentType" : 5123,
            "count" : 5736,
            "type" : "SCALAR"
        },
        {
            "bufferView" : 17,
            "componentType" : 5126,
            "count" : 307,
            "max" : [
                0.393259197473526,
                1.3044694662094116,
                -3.1133017539978027
            ],
            "min" : [
                -0.3069339990615845,
                1.0950509309768677,
                -3.2012252807617188
            ],
            "type" : "VEC3"
        },
        {
            "bufferView" : 18,
            "componentType" : 5126,
            "count" : 307,
            "type" : "VEC3"
        },
        {
            "bufferView" : 19,
            "componentType" : 5126,
            "count" : 307,
            "type" : "VEC2"
        },
        {
            "bufferView" : 20,
            "componentType" : 5123,
            "count" : 307,
            "normalized" : true,
            "type" : "VEC4"
        },
        {
            "bufferView" : 21,
            "componentType" : 5123,
            "count" : 474,
            "type" : "SCALAR"
        }
    ],
    "bufferViews" : [
        {
            "buffer" : 0,
            "byteLength" : 83628,
            "byteOffset" : 0
        },
        {
            "buffer" : 0,
            "byteLength" : 83628,
            "byteOffset" : 83628
        },
        {
            "buffer" : 0,
            "byteLength" : 55752,
            "byteOffset" : 167256
        },
        {
            "buffer" : 0,
            "byteLength" : 55752,
            "byteOffset" : 223008
        },
        {
            "buffer" : 0,
            "byteLength" : 43812,
            "byteOffset" : 278760
        },
        {
            "buffer" : 0,
            "byteLength" : 35806,
            "byteOffset" : 322572
        },
        {
            "buffer" : 0,
            "byteLength" : 7104,
            "byteOffset" : 358380
        },
        {
            "buffer" : 0,
            "byteLength" : 7104,
            "byteOffset" : 365484
        },
        {
            "buffer" : 0,
            "byteLength" : 4736,
            "byteOffset" : 372588
        },
        {
            "buffer" : 0,
            "byteLength" : 4736,
            "byteOffset" : 377324
        },
        {
            "buffer" : 0,
            "byteLength" : 6408,
            "byteOffset" : 382060
        },
        {
            "buffer" : 0,
            "byteLength" : 39252,
            "byteOffset" : 388468
        },
        {
            "buffer" : 0,
            "byteLength" : 39252,
            "byteOffset" : 427720
        },
        {
            "buffer" : 0,
            "byteLength" : 26168,
            "byteOffset" : 466972
        },
        {
            "buffer" : 0,
            "byteLength" : 26168,
            "byteOffset" : 493140
        },
        {
            "buffer" : 0,
            "byteLength" : 11472,
            "byteOffset" : 519308
        },
        {
            "buffer" : 0,
            "byteLength" : 22427,
            "byteOffset" : 530780
        },
        {
            "buffer" : 0,
            "byteLength" : 3684,
            "byteOffset" : 553208
        },
        {
            "buffer" : 0,
            "byteLength" : 3684,
            "byteOffset" : 556892
        },
        {
            "buffer" : 0,
            "byteLength" : 2456,
            "byteOffset" : 560576
        },
        {
            "buffer" : 0,
            "byteLength" : 2456,
            "byteOffset" : 563032
        },
        {
            "buffer" : 0,
            "byteLength" : 948,
            "byteOffset" : 565488
        },
        {
            "buffer" : 0,
            "byteLength" : 26419,
            "byteOffset" : 566436
        }
    ],
    "samplers" : [
        {
            "magFilter" : 9729,
            "minFilter" : 9987
        }
    ],
    "buffers" : [
        {
            "byteLength" : 592856,
            "uri" : "data:application/octet-stream;base64,"
        }
    ]
}
